<?xml version="1.0" encoding="UTF-8"?>
<svg width="25px" height="23px" viewBox="0 0 25 23" version="1.1" xmlns="http://www.w3.org/2000/svg" xmlns:xlink="http://www.w3.org/1999/xlink">
    <!-- Generator: Sketch 60.1 (88133) - https://sketch.com -->
    <title>Icon24 / cloche-clock</title>
    <desc>Created with Sketch.</desc>
    <g id="AU" stroke="none" stroke-width="1" fill="none" fill-rule="evenodd">
        <g id="AU_Homepage-A" transform="translate(-838.000000, -1550.000000)">
            <g id="Group-21" transform="translate(832.000000, 1543.000000)">
                <g id="Group-18">
                    <g id="Icon24-/-cloche-clock" transform="translate(5.000000, 5.000000)">
                        <rect id="Rectangle" x="0" y="0" width="27" height="27"></rect>
                        <g id="cloche-clock" stroke-width="1" fill-rule="evenodd" transform="translate(1.125000, 2.250000)" fill="#659A41">
                            <path d="M14.265,18.48375 L10.67625,18.48375 L10.67625,13.5 C10.67625,13.0309031 11.0565281,12.650625 11.525625,12.650625 C11.9947219,12.650625 12.375,13.0309031 12.375,13.5 L12.375,16.79625 L14.27625,16.79625 C14.7422403,16.79625 15.12,17.1740097 15.12,17.64 C15.12,18.1059903 14.7422403,18.48375 14.27625,18.48375 L14.265,18.48375 Z M23.265,12.1275 L22.46625,12.1275 L22.46625,12.06 C22.4638909,6.86833151 18.5019971,2.53562 13.33125,2.07 C13.4989663,1.86759893 13.5905136,1.61285868 13.59,1.35 C13.5486789,0.882594721 13.2215945,0.489924336 12.7693559,0.364802961 C12.3171172,0.239681587 11.8347153,0.408390451 11.5590254,0.788087934 C11.2833354,1.16778542 11.272265,1.67871763 11.53125,2.07 C6.35857992,2.53526136 2.39319717,6.86645432 2.385,12.06 C2.37973666,12.0821922 2.37973666,12.1053078 2.385,12.1275 L1.51875,12.1275 C1.05275974,12.1275 0.675,12.5052597 0.675,12.97125 C0.675,13.4372403 1.05275974,13.815 1.51875,13.815 L6.21,13.815 C5.77237495,15.1158636 5.8042185,16.5289209 6.3,17.80875 C7.59307131,21.0563749 11.1516106,22.7795085 14.50125,21.78 C16.0831834,21.3028725 17.3929207,20.1849036 18.1125,18.6975 C18.2123567,18.4965526 18.2268656,18.2638036 18.152738,18.0520104 C18.0786104,17.8402173 17.9221241,17.6673167 17.71875,17.5725 C17.2993276,17.3711296 16.7960519,17.5472761 16.59375,17.96625 C16.0838734,19.0494081 15.1399778,19.8666337 13.995,20.21625 C12.7888682,20.5776579 11.4906412,20.4691373 10.36125,19.9125 C9.21215402,19.365511 8.32064,18.3933169 7.875,17.20125 C7.43820696,16.1101369 7.4790164,14.8858538 7.9875,13.82625 C8.95863981,12.0032843 11.046107,11.0755211 13.05,11.57625 C12.7920399,11.8027668 12.694577,12.1616075 12.8025,12.4875 C12.915263,12.8323832 13.2384149,13.0645064 13.60125,13.06125 C13.6905164,13.0775008 13.7819836,13.0775008 13.87125,13.06125 L16.47,12.195 L15.53625,9.61875 C15.4498364,9.33338411 15.217746,9.11579627 14.9274051,9.04794971 C14.6370642,8.98010315 14.3325824,9.07230538 14.1286551,9.28982471 C13.9247278,9.50734404 13.8523364,9.81713411 13.93875,10.1025 C11.419202,9.29995635 8.66648195,10.1531649 7.0425,12.24 L4.05,12.24 C4.04473666,12.2178078 4.04473666,12.1946922 4.05,12.1725 C4.21495477,7.67842829 7.90602698,4.1203512 12.403125,4.1203512 C16.900223,4.1203512 20.5912952,7.67842829 20.75625,12.1725 L20.75625,12.24 L17.85375,12.24 C17.3877597,12.24 17.01,12.6177597 17.01,13.08375 C17.01,13.5497403 17.3877597,13.9275 17.85375,13.9275 L23.23125,13.9275 C23.6972403,13.9275 24.075,13.5497403 24.075,13.08375 C24.075,12.6177597 23.6972403,12.24 23.23125,12.24 L23.265,12.1275 Z"></path>
                        </g>
                    </g>
                </g>
            </g>
        </g>
    </g>
</svg>