<?xml version="1.0" encoding="UTF-8"?>
<svg width="24px" height="24px" viewBox="0 0 24 24" version="1.1" xmlns="http://www.w3.org/2000/svg" xmlns:xlink="http://www.w3.org/1999/xlink">
    <!-- Generator: Sketch 60.1 (88133) - https://sketch.com -->
    <title>Icon24 / coin / coin</title>
    <desc>Created with Sketch.</desc>
    <g id="AU" stroke="none" stroke-width="1" fill="none" fill-rule="evenodd">
        <g id="AU_Homepage-A" transform="translate(-838.000000, -1672.000000)">
            <g id="Group-23" transform="translate(832.000000, 1666.000000)">
                <g id="Group-20">
                    <g id="Icon24-/-coin-/-coin" transform="translate(4.387097, 4.387097)">
                        <g id="coin">
                            <g id="Icon24-/-coin-/-coin">
                                <g id="coin" stroke-width="1" fill-rule="evenodd" transform="translate(2.250000, 2.250000)" fill="#659A41">
                                    <path d="M15.33375,13.64625 C15.1982734,15.0752024 14.173809,16.2621368 12.78,16.605 C12.5485187,16.6796701 12.3115439,16.7360927 12.07125,16.77375 L12.07125,18.57375 L10.38375,18.57375 L10.38375,16.875 C9.17146839,16.7279054 8.07102414,16.0944393 7.335,15.12 L8.67375,14.1075 C9.54125705,15.1474161 10.9685937,15.5301404 12.24,15.06375 C13.08375,14.7825 13.64625,14.23125 13.64625,13.7025 C13.64625,12.67875 13.08375,12.4425 11.14875,12.16125 C9.5625,11.93625 7.16625,11.59875 7.16625,8.91 C7.30172663,7.48104764 8.32619098,6.29411318 9.72,5.95125 C9.93654112,5.8778792 10.1584601,5.82145911 10.38375,5.7825 L10.38375,3.9375 L12.07125,3.9375 L12.07125,5.68125 C13.2997492,5.81657671 14.4185136,6.45122123 15.165,7.43625 L13.815,8.44875 C12.9569655,7.40172677 11.5275141,7.01722243 10.26,7.4925 C9.41625,7.77375 8.85375,8.325 8.85375,8.85375 C8.85375,9.91125 9.41625,10.15875 11.385,10.44 C12.96,10.665 15.33375,11.0025 15.33375,13.64625 Z M22.5,11.25 C22.5,5.03679656 17.4632034,1.77635684e-15 11.25,1.77635684e-15 C5.03679656,1.77635684e-15 1.77635684e-15,5.03679656 1.77635684e-15,11.25 C1.77635684e-15,17.4632034 5.03679656,22.5 11.25,22.5 C17.4632034,22.5 22.5,17.4632034 22.5,11.25 Z M20.8125,11.25 C20.8124973,15.1232436 18.4787089,18.6148899 14.8998624,20.0960629 C11.3210158,21.5772359 7.20229405,20.7560824 4.46510781,18.015676 C1.72792157,15.2752695 0.911611376,11.1555851 2.39699129,7.57848254 C3.8823712,4.00138001 7.37675907,1.6716986 11.25,1.67624334 C16.5348662,1.68244926 20.8175507,5.96513382 20.82375,11.25 L20.8125,11.25 Z"></path>
                                </g>
                                <rect id="Rectangle" x="0" y="0" width="27" height="27"></rect>
                            </g>
                        </g>
                    </g>
                </g>
            </g>
        </g>
    </g>
</svg>